<svg width="240" height="388" viewBox="0 0 240 388" fill="none" xmlns="http://www.w3.org/2000/svg" class="sc-bczRLJ grfsPt"><rect width="240" height="388" rx="22.7817" fill="url(#cardBackgroundunique)"></rect><g><g mask="url(#tier)" opacity="0.6"><g mask="url(#cardShape)"><g transform="translate(-105 -80) rotate(-45 255 255)"><rect width="550" height="550" fill="url(#scarcityRowunique)"></rect><rect width="550" height="550" fill="url(#scarcityRowunique2)"></rect></g></g></g></g><g opacity="0.5"><g><path d="M118.66 187.136C119.542 188.236 120.679 189.104 121.971 189.666C123.263 190.229 124.673 190.469 126.079 190.365C126.136 190.359 126.193 190.369 126.244 190.394C126.295 190.419 126.338 190.458 126.368 190.507C126.397 190.556 126.412 190.612 126.411 190.669C126.41 190.726 126.393 190.781 126.361 190.829V190.829C125.589 192.008 125.114 193.357 124.979 194.76C124.844 196.163 125.051 197.578 125.585 198.883V198.883C125.605 198.935 125.611 198.991 125.602 199.046C125.592 199.101 125.568 199.152 125.531 199.194C125.494 199.236 125.446 199.266 125.392 199.282C125.339 199.298 125.282 199.299 125.229 199.284V199.284C123.867 198.912 122.435 198.877 121.057 199.182C119.679 199.488 118.396 200.124 117.318 201.036V201.036C117.275 201.071 117.223 201.094 117.168 201.102C117.113 201.11 117.056 201.102 117.005 201.08C116.954 201.058 116.91 201.022 116.878 200.976C116.846 200.93 116.827 200.877 116.824 200.821V200.821C116.756 199.414 116.346 198.044 115.631 196.83C114.916 195.616 113.917 194.594 112.719 193.851C112.672 193.822 112.634 193.779 112.609 193.729C112.585 193.679 112.574 193.623 112.58 193.567C112.585 193.512 112.605 193.459 112.639 193.414C112.673 193.37 112.718 193.335 112.77 193.315V193.315C114.089 192.816 115.267 192.003 116.202 190.948C117.137 189.892 117.802 188.625 118.138 187.255V187.255C118.151 187.201 118.179 187.151 118.218 187.112C118.258 187.073 118.308 187.046 118.362 187.034C118.416 187.022 118.473 187.025 118.526 187.043C118.578 187.061 118.625 187.093 118.66 187.136V187.136Z" fill="white"></path><path d="M119.886 181.393C122.384 181.393 124.825 182.134 126.902 183.521C128.979 184.909 130.597 186.881 131.553 189.188C132.509 191.496 132.759 194.035 132.272 196.485C131.784 198.934 130.582 201.184 128.816 202.951C127.049 204.717 124.799 205.919 122.35 206.407C119.9 206.894 117.361 206.644 115.054 205.688C112.746 204.732 110.774 203.114 109.386 201.037C107.999 198.96 107.258 196.519 107.258 194.021C107.262 190.673 108.593 187.463 110.961 185.096C113.328 182.728 116.538 181.397 119.886 181.393V181.393ZM119.886 178.003C116.718 178.003 113.621 178.942 110.987 180.702C108.353 182.462 106.3 184.964 105.087 187.891C103.875 190.818 103.558 194.039 104.176 197.146C104.794 200.253 106.319 203.108 108.56 205.348C110.8 207.588 113.654 209.114 116.761 209.732C119.868 210.35 123.089 210.033 126.016 208.82C128.943 207.608 131.445 205.555 133.205 202.92C134.965 200.286 135.905 197.189 135.905 194.021C135.905 189.773 134.217 185.698 131.213 182.694C128.209 179.69 124.134 178.003 119.886 178.003Z" fill="white"></path></g><rect x="0.755239" width="107.875" height="107.875" transform="matrix(0.707226 -0.706988 0.707226 0.706988 43.2211 194.555)" stroke="white" stroke-width="1.06789"></rect><rect x="-2.51746" width="112.503" height="112.503" transform="matrix(0.707226 -0.706988 0.707226 0.706988 42.263 192.242)" stroke="white" stroke-opacity="0.52" stroke-width="3.55963"></rect><rect x="2.01397" width="94.0116" height="94.0116" transform="matrix(0.707226 -0.706988 0.707226 0.706988 52.1355 195.445)" stroke="white" stroke-width="2.84771"></rect></g><g style="mix-blend-mode: overlay;" opacity="1"><g mask="url(#cardShape)"><rect width="240" height="388" fill="url(#unique_gradient"></rect></g></g><defs><linearGradient id="gradient_text" x1="100%" y1="0" x2="0" y2="0" gradientUnits="objectBoundingBox"><stop stop-color="white" stop-opacity="0.6"></stop><stop offset="1" stop-color="white" stop-opacity="0.2"></stop></linearGradient><linearGradient id="gradient_text_rare" x1="100%" y1="0" x2="0" y2="0" gradientUnits="objectBoundingBox"><stop stop-color="white"></stop><stop offset="1" stop-color="white" stop-opacity="0.4"></stop></linearGradient><svg id="star" viewBox="0 0 12 12"><path d="M8.79877 2.88046C9.8661 3.45194 10.9774 3.69244 11.9493 3.6224C12.1007 3.6115 12.2889 3.56694 12.3565 3.70273C12.4518 3.84628 12.268 3.99389 12.1533 4.12247C11.4955 4.85989 10.9813 5.89046 10.7696 7.09457C10.5487 8.32669 10.6809 9.48792 11.0759 10.4196C11.1092 10.4983 11.1826 10.5721 11.1632 10.6553C11.1524 10.7016 11.1178 10.7436 11.0752 10.7646C11.0219 10.7908 10.9531 10.7805 10.8976 10.7434C9.97615 10.2552 8.72198 10.0496 7.41662 10.2295C6.21828 10.3979 5.17703 10.8592 4.41896 11.5079C4.3174 11.5948 4.21599 11.7366 4.08922 11.6941C3.93052 11.641 4.00314 11.406 4.0221 11.2398C4.13569 10.2435 3.94109 9.10777 3.39815 7.99393C2.83505 6.83762 1.99041 5.93826 1.09457 5.42435C1.04338 5.39865 0.992188 5.34727 0.992188 5.27018C0.992188 5.11152 1.22489 5.10654 1.38031 5.07464C2.3644 4.87266 3.41515 4.30426 4.26839 3.47147C5.15676 2.60439 5.73584 1.57011 5.95976 0.575891C5.97632 0.502351 5.97482 0.413012 6.02503 0.35678C6.06134 0.316106 6.11344 0.296184 6.16648 0.308811C6.22173 0.321962 6.27329 0.362054 6.29042 0.413665C6.75114 1.33871 7.64698 2.26376 8.79877 2.88046Z"></path></svg><pattern id="scarcityRowunique" width="75" height="40" x="0" y="-7" patternUnits="userSpaceOnUse"><use href="#star" fill="url(#gradient_text)" width="10" height="10"></use><g transform="translate(14, 0)"><use href="#rarityunique" x="0" y="0"></use></g></pattern><pattern id="scarcityRowunique2" width="75" height="40" x="37.5" y="13" patternUnits="userSpaceOnUse"><use href="#star" fill="url(#gradient_text)" width="10" height="10"></use><g transform="translate(14, 0)"><use href="#rarityunique" x="0" y="0"></use></g></pattern><g id="rarityunique"><path d="M6.09038 9.14834L6.42072 9.14959C10.7606 9.16607 11.3064 6.42293 11.3128 4.7371L11.3286 0.568092L8.61762 0.557797L8.60191 4.69264C8.59828 5.64946 8.33149 6.91284 6.29255 6.90509L6.23559 6.90488C4.19665 6.89713 3.90529 5.63164 3.90893 4.67481L3.92463 0.539974L1.21363 0.529679L1.1978 4.69869C1.19144 6.37313 1.57965 9.13121 6.09038 9.14834ZM14.7753 3.88454L19.6537 9.07454L22.2849 9.08454L22.3171 0.609822L19.6745 0.599786L19.6552 5.68006L14.9131 0.581704L12.1338 0.57115L12.1016 9.04586L14.7557 9.05594L14.7753 3.88454ZM25.8766 9.09818L25.9088 0.623462L23.1864 0.613123L23.1542 9.08784L25.8766 9.09818ZM30.8316 9.21951L30.8253 10.8826L34.8804 10.898L33.4859 9.17264C36.7112 8.72925 37.4484 6.56778 37.4542 5.05281L37.4555 4.71108C37.462 2.97969 36.5487 0.527177 32.186 0.510609L31.6848 0.508706C27.3222 0.492138 26.3902 2.93764 26.3837 4.66904L26.3824 5.01076C26.3763 6.60546 27.1991 8.89816 30.8316 9.21951ZM34.6188 4.79144L34.6183 4.93952C34.6148 5.85078 34.1771 7.13629 31.9103 7.12768C29.6663 7.11916 29.2042 5.81884 29.2077 4.91897L29.2082 4.77089C29.2117 3.84824 29.6492 2.61968 31.9274 2.62834C34.2055 2.63699 34.6222 3.90296 34.6188 4.79144ZM42.7922 9.28771L43.1225 9.28897C47.4624 9.30545 48.0082 6.56231 48.0146 4.87648L48.0304 0.707471L45.3194 0.697175L45.3037 4.83202C45.3001 5.78884 45.0333 7.05222 42.9943 7.04447L42.9374 7.04426C40.8984 7.03651 40.6071 5.77102 40.6107 4.81419L40.6264 0.679353L37.9154 0.669058L37.8996 4.83807C37.8932 6.51251 38.2814 9.27058 42.7922 9.28771ZM56.9572 0.741371L48.8356 0.710529L48.8034 9.18524L56.9933 9.21634L57.0008 7.24575L51.5105 7.2249L51.5155 5.91496L56.7666 5.9349L56.7742 3.91874L51.5231 3.8988L51.5278 2.6686L56.9498 2.68919L56.9572 0.741371Z" fill="url(#gradient_text)"></path></g><linearGradient id="cardBackgroundunique" x1="30%" y1="0" x2="70%" y2="100%" gradientUnits="objectBoundingBox"><stop offset="0"></stop><stop offset="1"></stop></linearGradient><mask id="cardShape"><rect x="0" y="0" width="240" height="388" fill="black"></rect><rect x="0" y="0" width="240" height="388" rx="22.7817" fill="white"></rect></mask><mask id="tier"><rect width="240" height="388" fill="white"></rect><g transform="scale(1.1)" transform-origin="50% 50%"><rect x="39" y="194" width="114.96" height="114.96" transform="rotate(-45 39 194)" fill="black" id="tier"></rect></g></mask><linearGradient id="unique_gradient" x1="0" y1="100%" x2="100%" y2="0" gradientUnits="objectBoundingBox"><stop offset="0.270374" stop-color="#99C0FA"></stop><stop offset="0.434684" stop-color="#9DC2FB"></stop><stop offset="0.604977" stop-color="#F1EDFE"></stop><stop offset="0.717725" stop-color="#F1EDFE"></stop><stop offset="0.899493" stop-color="#A8EBFE"></stop></linearGradient></defs></svg>